<svg xmlns="http://www.w3.org/2000/svg" width="1200" height="630" viewBox="0 0 1200 630">
  <rect width="1200" height="630" fill="#ffffff"/>
  <rect width="1200" height="16" fill="#1e7a4c"/>
  <circle cx="1040" cy="150" r="240" fill="#edf6f0"/>
  <g transform="translate(80 80) scale(2.2)">
    <g fill="#1e7a4c">
      <rect x="26.5" y="6" width="11" height="20.5" rx="1.5"/>
      <rect x="37.5" y="26.5" width="20.5" height="11" rx="1.5"/>
      <rect x="26.5" y="37.5" width="11" height="20.5" rx="1.5"/>
      <rect x="6" y="26.5" width="20.5" height="11" rx="1.5"/>
      <rect x="27.5" y="27.5" width="9" height="9"/>
    </g>
    <g stroke="#ffffff" stroke-width="1.5" stroke-linecap="round" fill="none">
      <path d="M30 9.5 V23 M34 9.5 V23"/>
      <path d="M41 30 H54.5 M41 34 H54.5"/>
      <path d="M30 41 V54.5 M34 41 V54.5"/>
      <path d="M9.5 30 H23 M9.5 34 H23"/>
    </g>
    <g fill="none" stroke="#ff6a4d" stroke-width="3.4" stroke-linecap="round">
      <path d="M39 7.5 Q49 7.5 51 17"/>
      <path d="M56.5 39 Q56.5 49 47 51"/>
      <path d="M25 56.5 Q15 56.5 13 47"/>
      <path d="M7.5 25 Q7.5 15 17 13"/>
    </g>
  </g>
  <text x="250" y="160" font-family="Arial, Helvetica, sans-serif" font-weight="bold" font-size="76" letter-spacing="-2" fill="#12211a">Way To Store</text>
  <text x="254" y="200" font-family="Arial, Helvetica, sans-serif" font-weight="bold" font-size="22" letter-spacing="5" fill="#1e7a4c">SELF STORAGE  ·  GRAND FORKS, BC</text>
  <text x="80" y="310" font-family="Arial, Helvetica, sans-serif" font-size="36" fill="#12211a">Heated indoor units with level entry.</text>
  <text x="80" y="362" font-family="Arial, Helvetica, sans-serif" font-size="36" fill="#12211a">Fenced compound for RVs, boats, trailers and containers.</text>
  <rect x="80" y="430" width="560" height="84" rx="42" fill="#ff6a4d"/>
  <text x="120" y="484" font-family="Arial, Helvetica, sans-serif" font-weight="bold" font-size="34" fill="#12211a">Half price on your first month</text>
  <text x="1120" y="560" text-anchor="end" font-family="Arial, Helvetica, sans-serif" font-weight="bold" font-size="40" fill="#1e7a4c">250-442-7977</text>
  <text x="80" y="580" font-family="Arial, Helvetica, sans-serif" font-size="24" fill="#4a5b52">136 Sagamore Road  ·  waytostore.ca</text>
</svg>
